<?xml version="1.0" standalone="no"?>
<!DOCTYPE svg PUBLIC "-//W3C//DTD SVG 1.1//EN" "http://www.w3.org/Graphics/SVG/1.1/DTD/svg11.dtd" >
<svg xmlns="http://www.w3.org/2000/svg">
<metadata></metadata>
<defs>
<font id="vw_headline_blackregular" horiz-adv-x="1372" >
<font-face units-per-em="2048" ascent="1638" descent="-410" />
<missing-glyph horiz-adv-x="555" />
<glyph horiz-adv-x="2048" />
<glyph horiz-adv-x="2048" />
<glyph unicode="&#xd;" horiz-adv-x="555" />
<glyph unicode=" "  horiz-adv-x="555" />
<glyph unicode="&#x09;" horiz-adv-x="555" />
<glyph unicode="&#xa0;" horiz-adv-x="555" />
<glyph unicode="!" horiz-adv-x="651" d="M164 160q0 76 53 129t129 53t129 -53t53 -129t-53 -129.5t-129 -53.5t-129 53.5t-53 129.5zM190 467v985h312v-985h-312z" />
<glyph unicode="&#x22;" horiz-adv-x="931" d="M111 1489h286l-49 -612h-188zM539 1489h286l-49 -612h-186z" />
<glyph unicode="#" horiz-adv-x="1392" d="M82 383v238h231l33 229h-199v237h232l51 365h266l-51 -365h227l52 365h266l-51 -365h182v-237h-215l-33 -229h182v-238h-215l-53 -383h-266l53 383h-227l-53 -383h-267l54 383h-199zM580 621h227l33 229h-228z" />
<glyph unicode="$" horiz-adv-x="1071" d="M41 180l162 205q123 -123 262 -158v359q-188 78 -272 168q-109 113 -109 295q0 145 106.5 267t276.5 146v187h135v-183q213 -16 367 -159l-158 -199q-100 98 -209 113v-375q197 -80 279 -158q111 -106 110 -280q0 -164 -108.5 -283t-280.5 -145v-226h-137v221 q-238 18 -424 205zM362 1063q0 -100 113 -160v311q-113 -33 -113 -151zM594 227q115 29 115 146q0 96 -115 157v-303z" />
<glyph unicode="%" horiz-adv-x="1820" d="M63 1001q0 211 97.5 341.5t257.5 130.5q147 0 233 -111q94 -123 94 -361q0 -225 -104 -356q-96 -121 -248 -121q-158 0 -244 123t-86 354zM272 1001q0 -281 131 -280q133 0 134 280q0 277 -129 277q-61 0 -98.5 -77t-37.5 -200zM459 4l745 1507l162 -69l-748 -1510z M1067 442q0 211 97 341t257 130q147 0 234 -110q94 -123 94 -361q0 -225 -104 -356q-96 -121 -248 -121q-158 0 -244 123t-86 354zM1276 442q0 -281 131 -280q133 0 133 280q0 277 -129 277q-61 0 -98 -77t-37 -200z" />
<glyph unicode="&#x26;" horiz-adv-x="1355" d="M86 379q0 190 279 409q-152 170 -152 328q0 145 96 246q106 109 283 108q176 0 280.5 -94t104.5 -260q0 -174 -219 -342l-27 -20l184 -222l183 160l174 -200l-189 -160l201 -240v-92h-268l-135 164q-217 -186 -402 -187q-172 0 -282.5 110t-110.5 292zM379 391 q0 -63 39 -104t98 -41q51 0 98 30q18 14 103 84l-195 236q-143 -109 -143 -205zM479 1116q0 -59 92 -172q127 98 127 172q0 111 -108 111q-47 0 -79 -33t-32 -78z" />
<glyph unicode="'" horiz-adv-x="499" d="M111 1489h286l-49 -612h-188z" />
<glyph unicode="(" horiz-adv-x="614" d="M104 469q0 521 252 1008l219 -78q-227 -455 -227 -920q0 -487 223 -874l-221 -84q-246 436 -246 948z" />
<glyph unicode=")" horiz-adv-x="614" d="M43 -401q117 238 170 436q59 227 59 485q0 508 -225 873l221 84q119 -217 176 -412q70 -244 70 -535q0 -293 -61 -530q-58 -219 -191 -479z" />
<glyph unicode="*" horiz-adv-x="729" d="M33 1221l88 151l174 -131l-23 211h166l-16 -209l172 129l90 -145l-190 -101l192 -96l-90 -147l-170 125l16 -211h-172l23 213l-166 -129l-92 145l192 98z" />
<glyph unicode="+" d="M86 469v262h469v465h264v-465h467v-262h-467v-469h-264v469h-469z" />
<glyph unicode="," horiz-adv-x="514" d="M27 -254q116 103 116 191q0 53 -26.5 111t-26.5 95q0 74 49 124t121 50q76 0 126 -52t50 -138q0 -258 -317 -487z" />
<glyph unicode="-" horiz-adv-x="772" d="M82 397v242h606v-242h-606z" />
<glyph unicode="." horiz-adv-x="514" d="M80 139q0 74 52 126t126 52t126 -52t52 -126t-52 -126t-126 -52t-126 52.5t-52 125.5z" />
<glyph unicode="/" horiz-adv-x="1024" d="M0 0l825 1452h201l-829 -1452h-197z" />
<glyph unicode="0" horiz-adv-x="1282" d="M92 721q0 358 153.5 561t409.5 203q252 0 393.5 -210t141.5 -556q0 -301 -133 -506q-156 -244 -441 -244q-244 0 -380 195q-143 199 -144 557zM408 721q0 -221 61 -350t172 -129q233 0 233 477q0 223 -55 354q-63 144 -180 144q-231 0 -231 -496z" />
<glyph unicode="1" horiz-adv-x="858" d="M78 1169v283h586v-1452h-316v1169h-270z" />
<glyph unicode="2" horiz-adv-x="1204" d="M80 928q-8 266 133 413q135 141 375 142q231 0 368 -135q123 -125 123 -310q0 -127 -57 -245q-59 -127 -209 -301q-90 -104 -201 -224q99 6 201 6h285v-274h-987v90l409 492q141 170 190.5 261t49.5 185q0 76 -52.5 126t-134.5 50q-207 0 -192 -276h-301z" />
<glyph unicode="3" horiz-adv-x="1210" d="M90 465h295q-12 -238 207 -238q98 0 151 60q45 53 45 133q0 205 -305 190v258q276 -16 277 181q0 78 -48 127t-124 49q-176 0 -172 -207h-299q-4 203 127 337t358 134q207 0 339 -120t132 -308q0 -207 -186 -307q98 -33 162.5 -125t64.5 -203q0 -178 -133 -309 q-147 -145 -381 -146q-221 0 -358 117q-154 131 -152 377z" />
<glyph unicode="4" horiz-adv-x="1218" d="M68 299v264l596 889h329v-891h181v-262h-181v-299h-313v299h-612zM356 557h328v250q0 188 12 299q-36 -72 -112 -203z" />
<glyph unicode="5" horiz-adv-x="1144" d="M70 100l69 277q166 -135 348 -135q100 0 173 63.5t73 173.5q0 102 -78 172q-88 78 -243 78q-129 0 -256 -41l118 764h707v-278h-467l-27 -207q227 18 390 -105q176 -131 176 -362q0 -223 -152 -371q-162 -158 -432 -158q-217 0 -399 129z" />
<glyph unicode="6" horiz-adv-x="1228" d="M96 469q0 231 193 522q119 180 338 461h370q-154 -176 -295 -367q-53 -76 -165 -229q86 49 190 49q178 0 302 -119.5t124 -308.5q0 -211 -155.5 -358.5t-385.5 -147.5q-225 0 -370.5 134.5t-145.5 363.5zM408 459q0 -94 62.5 -157.5t156.5 -63.5q92 0 155.5 65.5 t63.5 157.5q0 90 -63.5 153.5t-155.5 63.5q-90 0 -154.5 -64.5t-64.5 -154.5z" />
<glyph unicode="7" horiz-adv-x="1116" d="M53 1178v274h1028v-92l-602 -1360h-352l543 1178h-617z" />
<glyph unicode="8" horiz-adv-x="1251" d="M117 422q0 117 69.5 216t184.5 136q-92 41 -145.5 125t-53.5 180q0 176 121 289q127 123 346 123q195 0 324 -105q135 -111 135 -286q0 -213 -207 -309q113 -37 182.5 -135.5t69.5 -209.5q0 -193 -139 -327q-147 -143 -379 -144q-209 0 -355 119q-154 127 -153 328z M432 438q0 -82 55.5 -140t143.5 -58q84 0 140 56t56 142q0 82 -58 139.5t-140 57.5t-139.5 -57.5t-57.5 -139.5zM457 1067q0 -70 50 -120t126 -50q74 0 126 49t52 123q0 72 -52 122t-128 50t-125 -50t-49 -124z" />
<glyph unicode="9" horiz-adv-x="1212" d="M78 981q0 215 157.5 358.5t372.5 143.5q238 0 380 -137.5t142 -362.5q0 -152 -69 -305q-61 -137 -201 -328l-258 -350h-373q154 184 265 334l198 266q-72 -51 -176 -51q-188 0 -313 119.5t-125 312.5zM381 997q0 -94 62.5 -157.5t158.5 -63.5q92 0 154.5 66.5t62.5 158.5 q0 90 -64.5 153t-154.5 63t-154.5 -65t-64.5 -155z" />
<glyph unicode=":" horiz-adv-x="600" d="M172 141q0 74 52 125t126 51t126 -51t52 -125t-52 -125t-126 -51t-126 51.5t-52 124.5zM172 723q0 74 52 125t126 51t126 -51t52 -125t-52 -125t-126 -51t-126 51t-52 125z" />
<glyph unicode=";" horiz-adv-x="618" d="M164 -254q117 103 117 191q0 53 -27 111t-27 95q0 74 49.5 124t120.5 50q76 0 126 -52t50 -138q0 -258 -317 -487zM217 723q0 74 52 125t126 51t126 -51t52 -125t-52 -125t-126 -51t-126 51t-52 125z" />
<glyph unicode="&#x3c;" d="M82 553v274l1167 498v-287l-803 -340l803 -329v-314z" />
<glyph unicode="=" d="M0 254v262h1372v-262h-1372zM0 684v260h1372v-260h-1372z" />
<glyph unicode="&#x3e;" d="M82 55v299l803 340l-803 330v301l1167 -498v-274z" />
<glyph unicode="?" horiz-adv-x="1155" d="M133 1012q0 207 125 339t338 132q225 0 358 -135q127 -125 127 -320q0 -160 -86.5 -270.5t-246.5 -145.5v-153h-297v360h110q100 0 160 62q53 55 53 133q0 80 -56 136t-136 56t-136.5 -56t-56.5 -138h-256zM426 156q0 74 52 126t126 52t126 -52.5t52 -125.5 q0 -74 -52 -126.5t-126 -52.5t-126 52.5t-52 126.5z" />
<glyph unicode="@" horiz-adv-x="2144" d="M88 561q0 412 293.5 703.5t705.5 291.5q430 0 699 -245q256 -233 256 -574q0 -281 -150 -440q-164 -174 -485 -174h-186v92q-111 -117 -277 -117q-176 0 -289 123q-119 127 -118 338q0 207 124.5 346t303.5 139q176 0 256 -129v105h270v-670q307 0 307 387 q0 229 -174 402q-201 197 -537 196q-317 0 -538 -227t-221 -547q0 -328 220 -554t544 -226q293 0 536 156l96 -187q-268 -184 -637 -184q-420 0 -709.5 286.5t-289.5 708.5zM817 567q0 -102 57.5 -173.5t153.5 -71.5q92 0 146.5 69.5t54.5 165.5q0 100 -58.5 170t-152.5 70 q-86 0 -143.5 -63.5t-57.5 -166.5z" />
<glyph unicode="A" horiz-adv-x="1517" d="M6 0l572 1452h335l598 -1452h-350l-108 293h-602l-107 -293h-338zM549 567h403l-123 330q-47 125 -81 252q-37 -135 -80 -254z" />
<glyph unicode="B" horiz-adv-x="1327" d="M164 0v1452h461q152 0 233 -25q90 -27 168 -104q90 -90 90 -242q0 -188 -160 -280q123 -23 201 -119t78 -231q0 -195 -125 -318q-135 -133 -469 -133h-477zM471 256h193q256 0 256 188q0 90 -46 136q-55 55 -198 55h-205v-379zM471 887h139q102 0 146 43q51 51 51 125 q0 61 -37 98q-45 45 -154 45h-145v-311z" />
<glyph unicode="C" horiz-adv-x="1310" d="M78 713q0 328 209 546t538 218q225 0 389 -76v-342q-160 131 -378 131q-188 0 -308 -123q-125 -129 -125 -346q0 -195 111 -322q123 -139 332 -139q217 0 368 119v-324q-168 -86 -403 -86q-328 0 -535 219q-199 211 -198 525z" />
<glyph unicode="D" horiz-adv-x="1425" d="M164 0v1452h411q373 0 562 -188q211 -211 211 -516q0 -328 -218 -545q-203 -203 -573 -203h-393zM475 256h88q209 0 320 109q133 131 133 370q0 223 -123 346q-117 117 -346 117h-72v-942z" />
<glyph unicode="E" horiz-adv-x="1138" d="M164 0v1452h821v-285h-506v-286h496v-283h-496v-309h506v-289h-821z" />
<glyph unicode="F" horiz-adv-x="1099" d="M164 0v1452h821v-285h-506v-286h504v-283h-504v-598h-315z" />
<glyph unicode="G" horiz-adv-x="1622" d="M74 729q0 330 206.5 546t542.5 216q201 0 365 -82q172 -88 272 -250l-256 -151q-142 196 -383 196h-2q-201 0 -317 -137q-109 -129 -109 -330q0 -209 111 -344q120 -149 322 -149h3q141 0 244 69.5t139 188.5h-389v270h729v-57q0 -326 -192 -533q-205 -217 -549 -217 q-330 0 -533.5 217t-203.5 547z" />
<glyph unicode="H" horiz-adv-x="1497" d="M164 0v1452h315v-571h539v571h315v-1452h-315v598h-539v-598h-315z" />
<glyph unicode="I" horiz-adv-x="643" d="M164 0v1452h315v-1452h-315z" />
<glyph unicode="J" horiz-adv-x="978" d="M-8 260l246 162q53 -158 165 -158q41 0 66 25q43 43 43 205v958h311v-950q0 -168 -28.5 -260t-100.5 -164q-104 -104 -305 -105q-133 0 -241.5 79t-155.5 208z" />
<glyph unicode="K" horiz-adv-x="1431" d="M164 0v1452h315v-653l486 653h381l-551 -692l569 -760h-395l-490 676v-676h-315z" />
<glyph unicode="L" horiz-adv-x="1007" d="M164 0v1452h317v-1163h504v-289h-821z" />
<glyph unicode="M" horiz-adv-x="1886" d="M76 0l198 1452h328l252 -700q55 -156 90 -301q51 199 86 294l254 707h322l202 -1452h-307l-88 788q-10 100 -14 263q-25 -94 -72 -250l-287 -801h-209l-282 782q-33 92 -74 258q0 -137 -14 -272l-82 -768h-303z" />
<glyph unicode="N" horiz-adv-x="1583" d="M164 0v1452h287l489 -698q135 -193 203 -320q-14 182 -17 424l-4 594h297v-1452h-282l-506 719q-121 170 -195 291q6 -109 15 -330l14 -680h-301z" />
<glyph unicode="O" horiz-adv-x="1665" d="M61 723q0 315 227.5 539.5t542.5 224.5q322 0 547.5 -222.5t225.5 -541.5q0 -313 -227.5 -537.5t-545.5 -224.5q-324 0 -547 221t-223 541zM385 727q0 -195 128 -330t318 -135q193 0 321 135t128 330t-128 329t-321 134q-190 0 -318 -134t-128 -329z" />
<glyph unicode="P" horiz-adv-x="1208" d="M164 0v1452h416q328 0 458 -131q119 -119 119 -317q0 -201 -121 -322q-141 -141 -430 -141h-129v-541h-313zM477 807h125q125 0 178.5 53t53.5 135q0 86 -48 133q-53 53 -174 54h-135v-375z" />
<glyph unicode="Q" horiz-adv-x="1665" d="M61 723q0 315 227.5 539.5t542.5 224.5q322 0 547.5 -222.5t225.5 -541.5q0 -320 -236 -545l209 -260l-285 -55l-137 170q-156 -72 -324 -72q-324 0 -547 221t-223 541zM385 727q0 -195 128 -330t318 -135q59 0 125 17l-172 215l285 57l105 -129q106 125 106 305 q0 195 -128 329t-321 134q-190 0 -318 -134t-128 -329z" />
<glyph unicode="R" horiz-adv-x="1273" d="M164 0v1452h448q293 0 424 -131q117 -117 117 -299q0 -158 -96 -270.5t-242 -135.5l418 -616h-373l-383 612v-612h-313zM477 817h113q135 0 189.5 54.5t54.5 138.5q0 72 -41 118q-61 70 -209 70h-107v-381z" />
<glyph unicode="S" horiz-adv-x="1142" d="M59 166l199 227q147 -166 281 -166q78 0 130 49.5t52 124.5q0 98 -154 179q-254 135 -284 161q-154 121 -154 318q0 190 141 313q135 119 330 119q264 0 422 -193l-193 -208q-88 139 -221 139q-74 0 -118 -45t-44 -111q0 -94 156 -172q252 -125 287 -151 q155 -119 155 -314q0 -213 -153 -348q-145 -127 -363 -127q-281 0 -469 205z" />
<glyph unicode="T" horiz-adv-x="987" d="M25 1167v285h938v-281h-312v-1171h-315v1167h-311z" />
<glyph unicode="U" horiz-adv-x="1488" d="M156 537v915h315v-897q0 -102 18 -154q23 -70 95.5 -115.5t169.5 -45.5q119 0 194.5 75.5t75.5 229.5v907h309v-881q0 -293 -164 -456q-150 -150 -428 -150q-287 0 -448 162q-137 137 -137 410z" />
<glyph unicode="V" horiz-adv-x="1443" d="M8 1452h348l277 -819q47 -137 86 -293q33 137 84 283l287 829h344l-545 -1452h-344z" />
<glyph unicode="W" horiz-adv-x="2068" d="M39 1452h328l202 -793q35 -139 60 -323q25 174 59 332l172 784h350l179 -797q23 -100 61 -323q31 201 61 319l201 801h318l-424 -1452h-340l-181 801q-31 141 -59 315q-29 -205 -53 -315l-174 -801h-336z" />
<glyph unicode="X" horiz-adv-x="1396" d="M2 0l541 762l-488 690h387l273 -436l284 436h375l-495 -684l516 -768h-371l-326 512l-325 -512h-371z" />
<glyph unicode="Y" horiz-adv-x="1292" d="M6 1452h367l278 -553l283 553h354l-485 -790v-662h-316v649z" />
<glyph unicode="Z" horiz-adv-x="1243" d="M2 0l678 1171h-606v281h1122l-678 -1169h670v-283h-1186z" />
<glyph unicode="[" horiz-adv-x="772" d="M174 -451v1903h528v-219h-260v-1456h263v-228h-531z" />
<glyph unicode="\" horiz-adv-x="729" d="M4 1452h264l469 -1489h-264z" />
<glyph unicode="]" horiz-adv-x="772" d="M63 -223h267v1458h-264v217h528v-1901h-531v226z" />
<glyph unicode="^" horiz-adv-x="1499" d="M233 639l418 813h215l400 -813h-285l-225 475l-240 -475h-283z" />
<glyph unicode="_" horiz-adv-x="1028" d="M-20 -231h1069v-263h-1069v263z" />
<glyph unicode="`" horiz-adv-x="1228" d="M344 1282l227 170l291 -336l-168 -112z" />
<glyph unicode="a" horiz-adv-x="1208" d="M76 436q0 217 120.5 353.5t325.5 136.5q195 0 281 -133v104h289v-897h-289v92q-123 -123 -307 -123q-193 0 -306.5 130t-113.5 337zM375 444q0 -104 59 -172q62 -73 161 -73h3q98 0 156.5 69.5t58.5 165.5q0 100 -62.5 170t-162.5 70q-92 0 -152.5 -63.5t-60.5 -166.5z " />
<glyph unicode="b" horiz-adv-x="1206" d="M117 0v1534h291v-754q115 141 301 142q182 0 301.5 -128t119.5 -335q0 -223 -131 -357q-123 -127 -315 -127q-172 0 -276 121v-96h-291zM395 442q0 -88 51 -155q61 -78 168 -78q96 0 156 72q55 66 55 163q0 94 -51 158q-60 72 -162 72q-98 0 -157.5 -64.5t-59.5 -167.5z " />
<glyph unicode="c" horiz-adv-x="899" d="M76 442q0 195 125 332q139 152 370 152q144 0 244 -47v-263q-82 57 -201 58q-102 0 -169.5 -60.5t-67.5 -162.5q0 -98 65.5 -166t171.5 -68q123 0 201 68v-265q-133 -49 -264 -49q-221 0 -352 142q-123 131 -123 329z" />
<glyph unicode="d" horiz-adv-x="1210" d="M197 776q127 139 329 139q174 0 277 -102v719h291v-1532h-291v115q-131 -135 -311 -135q-193 0 -308 135q-108 128 -108 327q0 203 121 334zM383 444q0 -104 61.5 -165.5t145.5 -61.5q96 0 158.5 70.5t62.5 169.5q0 100 -66 164q-61 57 -147 57q-96 0 -155.5 -68.5 t-59.5 -165.5z" />
<glyph unicode="e" horiz-adv-x="1081" d="M76 442q0 211 131 349.5t338 138.5q209 0 335 -124t126 -345q0 -47 -2 -82h-648q4 -86 64.5 -142.5t152.5 -56.5q135 0 224 119l188 -125q-160 -207 -442 -207q-195 0 -324 119q-143 129 -143 356zM358 551h359q0 68 -48 121t-126 53t-127.5 -48t-57.5 -126z" />
<glyph unicode="f" horiz-adv-x="665" d="M25 680v217h120v225q0 219 62 314q77 118 277 118h3q86 0 164 -14v-242q-43 6 -84 7q-78 0 -104.5 -38t-26.5 -188v-182h203v-217h-203v-680h-291v680h-120z" />
<glyph unicode="g" horiz-adv-x="1193" d="M76 451q0 203 123 337t307 134q202 0 282 -127v102h289v-813q0 -152 -25.5 -238t-93.5 -151q-137 -135 -389 -135q-205 0 -323.5 99t-118.5 251h289q0 -57 52 -95t120 -38q201 0 200 223v127q-111 -121 -290 -121q-205 0 -318 133q-104 121 -104 312zM375 457 q0 -100 58.5 -163t158.5 -63q94 0 149.5 67t55.5 161q0 82 -52 145q-61 72 -163 72q-90 0 -148.5 -64.5t-58.5 -154.5z" />
<glyph unicode="h" horiz-adv-x="1118" d="M117 0v1534h291v-748q115 139 290 140q141 0 226.5 -85t85.5 -253v-588h-291v514q0 160 -141 160q-170 0 -170 -225v-449h-291z" />
<glyph unicode="i" horiz-adv-x="536" d="M92 1235q0 72 52 124t124 52t124 -52t52 -124t-52 -124t-124 -52t-124 52t-52 124zM123 0v897h291v-897h-291z" />
<glyph unicode="j" horiz-adv-x="536" d="M92 1235q0 72 52 124t124 52t124 -52t52 -124t-52 -124t-124 -52t-124 52t-52 124zM123 -412v1309h291v-1309h-291z" />
<glyph unicode="k" horiz-adv-x="1069" d="M117 0v1534h291v-1006l282 369h357l-347 -414l371 -483h-381l-282 420v-420h-291z" />
<glyph unicode="l" horiz-adv-x="524" d="M117 0v1534h291v-1534h-291z" />
<glyph unicode="m" horiz-adv-x="1712" d="M117 0v897h291v-133q102 156 282 156q188 0 283 -168q121 166 311 166q320 -1 320 -353v-565h-291v496q0 176 -137 176q-63 0 -109 -37q-61 -53 -61 -164v-471h-291v496q0 176 -137 176q-63 0 -109 -37q-61 -53 -61 -164v-471h-291z" />
<glyph unicode="n" horiz-adv-x="1122" d="M117 0v897h291v-119q100 139 290 140q147 0 236 -89q80 -80 80 -262v-567h-291v496q0 176 -137 176q-63 0 -111 -37q-68 -53 -67 -164v-471h-291z" />
<glyph unicode="o" horiz-adv-x="1171" d="M76 451q0 203 142.5 341t367.5 138q221 0 365.5 -137.5t144.5 -343.5q0 -195 -135 -332q-150 -150 -390 -150q-211 0 -353 136.5t-142 347.5zM369 444q0 -96 65.5 -160.5t151.5 -64.5q94 0 154.5 67.5t60.5 162.5q0 96 -63.5 161.5t-153.5 65.5q-96 0 -155.5 -67.5 t-59.5 -164.5z" />
<glyph unicode="p" horiz-adv-x="1212" d="M117 -412v1309h291v-115q104 139 307 140q184 0 303 -135.5t119 -337.5q0 -188 -115 -324q-127 -150 -334 -150q-180 0 -280 115v-502h-291zM397 434q0 -102 59.5 -167.5t157.5 -65.5q100 0 160 75q53 66 53 162t-51 160q-60 74 -166 74q-96 0 -154.5 -71t-58.5 -167z " />
<glyph unicode="q" horiz-adv-x="1212" d="M76 444q0 201 126 336t322 135q193 0 281 -131v113h291v-1309h-291v504q-100 -117 -281 -117q-211 0 -334 144q-115 131 -114 325zM385 440q0 -96 55 -161q59 -72 156 -72q90 0 154.5 60.5t64.5 168.5q0 98 -55 166q-62 72 -160 72t-156.5 -65.5t-58.5 -168.5z" />
<glyph unicode="r" horiz-adv-x="698" d="M117 0v897h289v-141q86 164 261 164h17v-293q-46 30 -115 30h-4q-156 0 -155 -266v-391h-293z" />
<glyph unicode="s" horiz-adv-x="880" d="M63 186l246 97q39 -102 129 -103q92 0 92 62q0 49 -112 88q-164 57 -211 88q-113 76 -113 211q0 127 97.5 213t263.5 86q262 0 346 -211l-234 -90q-37 94 -125 94q-77 0 -77 -62q0 -57 112 -98q172 -59 213 -86q113 -74 113 -211q0 -133 -105.5 -212t-267.5 -79 q-285 0 -367 213z" />
<glyph unicode="t" horiz-adv-x="618" d="M39 680v217h123v320h291v-320h165v-217h-165v-680h-291v680h-123z" />
<glyph unicode="u" horiz-adv-x="1126" d="M109 428v469h290v-461q0 -223 168 -223q160 0 160 215v469h291v-469q0 -242 -100 -340q-123 -121 -355 -121q-227 0 -362 135q-92 92 -92 326z" />
<glyph unicode="v" horiz-adv-x="1105" d="M-2 897h328l172 -438q37 -92 65 -203q25 100 66 213l159 428h320l-397 -897h-318z" />
<glyph unicode="w" horiz-adv-x="1748" d="M10 897h303l170 -432q12 -31 52 -158q14 55 43 154l151 436h299l141 -408q35 -102 52 -178q29 94 61 178l160 408h297l-400 -897h-274l-154 440q-27 74 -37 135q-14 -74 -36 -137l-154 -438h-287z" />
<glyph unicode="x" horiz-adv-x="1105" d="M-2 0l375 459l-344 438h348q104 -147 180 -276q104 178 176 276h350l-342 -430l367 -467h-346q-119 172 -203 311q-84 -139 -213 -311h-348z" />
<glyph unicode="y" horiz-adv-x="1116" d="M-2 897h332l166 -401q29 -66 75 -203q31 86 76 196l166 408h305l-569 -1309h-311l176 394z" />
<glyph unicode="z" horiz-adv-x="972" d="M27 0l440 676h-389v221h860l-446 -678h419v-219h-884z" />
<glyph unicode="{" horiz-adv-x="798" d="M61 428v211q96 0 132 55t36 205v129q0 217 93.5 320.5t308.5 103.5h98v-186q-225 0 -225 -213v-133q0 -195 -42 -273t-173 -115q125 -35 174 -116q43 -72 43 -215v-207q0 -129 41 -174q45 -51 182 -51v-220h-115q-217 0 -305 101q-80 92 -80 307v195q0 150 -32 208 q-37 68 -136 68z" />
<glyph unicode="|" horiz-adv-x="471" d="M104 -514v2052h263v-2052h-263z" />
<glyph unicode="}" horiz-adv-x="798" d="M61 -266q225 0 226 213v133q0 195 42 272.5t173 114.5q-125 35 -174 117q-43 72 -43 215v207q0 129 -43 177t-181 48v219h115q217 0 305 -100q80 -92 80 -308v-194q0 -150 33 -209q37 -68 135 -68v-211q-96 0 -132 -55t-36 -205v-129q0 -217 -93 -320.5t-308 -103.5h-99 v187z" />
<glyph unicode="~" horiz-adv-x="1499" d="M201 639q135 174 331 174q88 0 231.5 -71.5t211.5 -71.5q121 0 211 121l108 -218q-150 -164 -327 -163q-82 0 -224.5 70.5t-203.5 70.5q-111 0 -224 -125z" />
<glyph unicode="&#xa1;" horiz-adv-x="651" d="M164 1292q0 76 53 129.5t129 53.5t129 -53.5t53 -129.5t-53 -129t-129 -53t-129 53.5t-53 128.5zM190 0v985h312v-985h-312z" />
<glyph unicode="&#xa2;" horiz-adv-x="1044" d="M92 711q0 205 123 352q137 162 377 178v211h145v-217q59 -6 181 -47v-260q-98 45 -181 53v-543q78 12 185 76v-258q-95 -45 -185 -57v-199h-145v193q-219 8 -356 149q-143 143 -144 369zM403 717q0 -96 52.5 -167.5t136.5 -100.5v522q-188 -55 -189 -254z" />
<glyph unicode="&#xa3;" horiz-adv-x="1228" d="M63 227q233 117 234 299q0 59 -25 125h-172v174h101q-53 135 -54 262q0 162 123 275q139 127 383 127q355 0 494 -299l-285 -127q-66 182 -223 182q-72 0 -118 -42t-46 -111q0 -76 80 -269h270v-172h-217q6 -41 6 -78q0 -150 -102 -249q63 -2 154.5 -43t158.5 -41 q84 0 203 82l141 -240q-193 -115 -354 -115q-113 0 -241 48t-199 48q-123 0 -211 -73z" />
<glyph unicode="&#xa4;" horiz-adv-x="743" />
<glyph unicode="&#xa5;" horiz-adv-x="1292" d="M6 1452h367l278 -537l283 537h354l-489 -780h317v-195h-319v-141h319v-197h-319v-139h-303v139h-347v197h347v141h-347v195h336z" />
<glyph unicode="&#xa6;" horiz-adv-x="471" d="M104 391h263v-784h-263v784zM104 633v784h263v-784h-263z" />
<glyph unicode="&#xa7;" horiz-adv-x="1114" d="M74 45h305q0 -160 176 -160q72 0 115 41t43 99q0 76 -158 137q-229 86 -295 133q-158 115 -158 323q0 106 54 201q47 88 123 137q-139 84 -140 244q0 158 105 260q115 115 323 115q455 0 455 -418h-283q0 190 -170 191q-61 0 -106 -40t-45 -108q0 -88 153 -147 q236 -94 283 -129q154 -106 154 -308q0 -213 -181 -329q80 -29 131.5 -105t51.5 -159q0 -156 -119 -263q-131 -115 -352 -114q-227 0 -353 118q-113 109 -112 281zM379 616q0 -72 52 -124t124 -52t124 52.5t52 123.5q0 72 -52 124.5t-124 52.5t-124 -52.5t-52 -124.5z" />
<glyph unicode="&#xa8;" horiz-adv-x="1024" d="M240 1235q0 68 48 116t115 48q68 0 116 -48t48 -116t-48 -116t-116 -48t-115.5 48t-47.5 116zM694 1235q0 68 48.5 116t115.5 48q68 0 116 -48t48 -116t-48 -116t-116 -48t-116 48t-48 116z" />
<glyph unicode="&#xa9;" horiz-adv-x="1714" d="M90 725q0 317 224.5 541.5t541.5 224.5t541.5 -224.5t224.5 -541.5t-224 -541.5t-542 -224.5q-317 0 -541.5 224.5t-224.5 541.5zM211 725q0 -266 189.5 -455.5t455.5 -189.5q268 0 456.5 189.5t188.5 455.5q0 268 -188.5 456.5t-456.5 188.5q-266 0 -455.5 -188.5 t-189.5 -456.5zM360 729q0 211 134 356q143 158 380 158q240 0 398 -168l-176 -180q-100 100 -226 100q-117 0 -187.5 -71.5t-70.5 -194.5q0 -117 73 -191.5t192 -74.5q135 0 219 94l176 -170q-160 -170 -398 -170q-221 0 -364 133q-150 139 -150 379z" />
<glyph unicode="&#xaa;" horiz-adv-x="1155" d="M117 1090q0 168 93 273t245 105q163 0 235 -104v88h258v-719h-258v64q-78 -90 -237 -90q-154 0 -245 110.5t-91 272.5zM180 397v242h781v-242h-781zM381 1087q0 -76 43 -127t117 -51q70 0 114 52q39 49 39 118q0 72 -45 122t-117 50q-66 0 -108.5 -46t-42.5 -118z" />
<glyph unicode="&#xab;" horiz-adv-x="983" d="M53 457l326 473l162 -115l-238 -348l242 -320l-180 -112zM451 467l315 461l172 -111l-238 -344l240 -321l-176 -109z" />
<glyph unicode="&#xac;" d="M0 467v262h1372v-729h-264v467h-1108z" />
<glyph unicode="&#xad;" horiz-adv-x="772" d="M82 397v242h606v-242h-606z" />
<glyph unicode="&#xae;" horiz-adv-x="1714" d="M176 932q0 274 195 468.5t469 194.5t468.5 -194.5t194.5 -468.5t-194.5 -469t-468.5 -195t-469 194.5t-195 469.5zM313 932q0 -217 155 -371.5t372 -154.5q219 0 372.5 154.5t153.5 371.5q0 219 -153.5 372.5t-372.5 153.5q-217 0 -372 -153.5t-155 -372.5zM573 549v784 h267q141 0 224 -63.5t83 -169.5q0 -150 -158 -213l187 -338h-242l-150 313h-12v-313h-199zM772 993h39q115 0 115 101q0 96 -113 96h-41v-197z" />
<glyph unicode="&#xaf;" horiz-adv-x="1024" d="M305 1090v237h602v-237h-602z" />
<glyph unicode="&#xb0;" horiz-adv-x="759" d="M14 1176q0 147 107.5 251.5t257.5 104.5t257 -104.5t107 -251.5t-107.5 -252t-256.5 -105q-150 0 -257.5 104.5t-107.5 252.5zM252 1176q0 -51 38 -89t89 -38q53 0 90 37.5t37 89.5q0 53 -37 90t-90 37q-51 0 -89 -37t-38 -90z" />
<glyph unicode="&#xb1;" d="M86 0v262h1200v-262h-1200zM86 764v260h469v428h264v-428h467v-260h-467v-430h-264v430h-469z" />
<glyph unicode="&#xb2;" horiz-adv-x="806" d="M102 1174q-2 137 75 214.5t210 77.5q129 0 207 -71q70 -66 70 -162q0 -141 -205 -330q37 6 41 6h172v-184h-555v80l211 235q117 131 116 189q0 53 -65 53q-68 0 -66 -108h-211z" />
<glyph unicode="&#xb3;" horiz-adv-x="770" d="M102 971h205q0 -90 74 -90q70 0 70 61q0 76 -125 74v149q111 -2 110 68q0 55 -57 55q-55 0 -57 -78h-205q4 115 72.5 185.5t195.5 70.5q115 0 188.5 -63.5t73.5 -163.5q0 -84 -82 -139q103 -45 103 -154q0 -96 -74 -164q-80 -76 -209 -75q-119 0 -195 61q-84 70 -88 203z " />
<glyph unicode="&#xb4;" horiz-adv-x="921" d="M356 1116l289 336l229 -170l-352 -278z" />
<glyph unicode="&#xb6;" d="M162 1018q0 180 127 307t307 127h633v-197h-121v-1599h-215v1599h-158v-1599h-215v934q-162 31 -260 151.5t-98 276.5z" />
<glyph unicode="&#xb7;" horiz-adv-x="514" d="M66 594q0 78 55 132t131 54q78 0 132 -54t54 -132q0 -76 -54 -131t-132 -55q-76 0 -131 55t-55 131z" />
<glyph unicode="&#xb8;" horiz-adv-x="614" d="M174 -358l217 282l227 -104l-280 -305z" />
<glyph unicode="&#xb9;" horiz-adv-x="608" d="M109 1266v186h344v-727h-220v541h-124z" />
<glyph unicode="&#xba;" horiz-adv-x="1175" d="M154 1090q0 162 115.5 272.5t293.5 110.5t298 -110t120 -276q0 -156 -111 -266q-121 -119 -311 -119q-170 0 -287.5 110t-117.5 278zM180 397v242h781v-242h-781zM414 1083q0 -70 45 -114.5t108 -44.5q66 0 109 49t43 114q0 70 -44 116t-110 46q-68 0 -109.5 -49 t-41.5 -117z" />
<glyph unicode="&#xbb;" horiz-adv-x="983" d="M37 158l244 350l-240 317l172 107l313 -424l-311 -465zM432 829l176 109l318 -430l-322 -467l-168 117l238 350z" />
<glyph unicode="&#xbc;" horiz-adv-x="1507" d="M109 1266v186h344v-727h-213v541h-131zM221 8l752 1503l139 -71l-752 -1506zM799 137v180l252 410h241v-412h80v-178h-80v-137h-198v137h-295zM983 313h113v121q0 6 2 33v33z" />
<glyph unicode="&#xbd;" horiz-adv-x="1507" d="M109 1266v186h344v-727h-213v541h-131zM221 8l752 1503l139 -71l-752 -1506zM803 449q-2 137 74.5 214.5t209.5 77.5q129 0 207 -71q70 -66 70 -162q0 -141 -205 -330q37 6 41 6h172v-184h-555v80l211 235q117 131 117 189q0 53 -66 53q-68 0 -65 -108h-211z" />
<glyph unicode="&#xbe;" horiz-adv-x="1740" d="M135 971h205q0 -90 74 -90q70 0 69 61q0 76 -125 74v149q111 -2 111 68q0 55 -57 55q-55 0 -58 -78h-204q4 115 72.5 185.5t195.5 70.5q115 0 188.5 -63.5t73.5 -163.5q0 -84 -82 -139q102 -45 102 -154q0 -96 -73 -164q-80 -76 -209 -75q-119 0 -195 61q-84 70 -88 203z M455 8l751 1503l140 -71l-752 -1506zM1032 137v180l252 410h242v-412h80v-178h-80v-137h-199v137h-295zM1217 313h112v121q0 50 2 66z" />
<glyph unicode="&#xbf;" horiz-adv-x="1155" d="M115 426q0 160 87 270.5t247 145.5v153h296v-360h-110q-100 0 -156.5 -58.5t-56.5 -136.5q0 -80 56.5 -136t135.5 -56q80 0 136.5 56t56.5 138h256q0 -207 -123 -336q-127 -135 -340 -135q-223 0 -358 135q-127 127 -127 320zM414 1298q0 74 52 126.5t126 52.5t126 -52.5 t52 -126.5t-52 -126t-126 -52t-126 52.5t-52 125.5z" />
<glyph unicode="&#xc0;" horiz-adv-x="1517" d="M6 0l572 1452h335l598 -1452h-350l-108 293h-602l-107 -293h-338zM471 1753l256 154l268 -271l-147 -110zM549 567h403l-123 330q-47 125 -81 252q-37 -135 -80 -254z" />
<glyph unicode="&#xc1;" horiz-adv-x="1517" d="M6 0l572 1452h335l598 -1452h-350l-108 293h-602l-107 -293h-338zM524 1632l267 269l258 -154l-377 -227zM549 567h403l-123 330q-47 125 -81 252q-37 -135 -80 -254z" />
<glyph unicode="&#xc2;" horiz-adv-x="1517" d="M6 0l572 1452h335l598 -1452h-350l-108 293h-602l-107 -293h-338zM377 1696l387 153l385 -145l-86 -184l-297 112l-305 -112zM549 567h403l-123 330q-47 125 -81 252q-37 -135 -80 -254z" />
<glyph unicode="&#xc3;" horiz-adv-x="1517" d="M6 0l572 1452h335l598 -1452h-350l-108 293h-602l-107 -293h-338zM334 1548q0 125 71.5 210t180.5 85q78 0 172 -47t143 -47q78 0 78 84h209q0 -133 -76 -215t-190 -82q-68 0 -169.5 49t-146.5 49q-29 0 -49 -26.5t-20 -59.5h-203zM549 567h403l-123 330q-47 125 -81 252 q-37 -135 -80 -254z" />
<glyph unicode="&#xc4;" horiz-adv-x="1517" d="M6 0l572 1452h335l598 -1452h-350l-108 293h-602l-107 -293h-338zM76 1319q0 68 48 116t116 48t115.5 -48.5t47.5 -115.5q0 -68 -48 -116t-115 -48q-68 0 -116 48t-48 116zM549 567h403l-123 330q-47 125 -81 252q-37 -135 -80 -254zM1090 1319q0 68 47.5 116t115.5 48 t116 -48.5t48 -115.5q0 -68 -48 -116t-116 -48t-115.5 48t-47.5 116z" />
<glyph unicode="&#xc5;" horiz-adv-x="1517" d="M6 0l561 1427q-74 70 -73 175q0 104 73.5 174.5t177.5 70.5t178 -70.5t74 -174.5q0 -102 -73 -177l587 -1425h-350l-108 293h-602l-107 -293h-338zM549 567h403l-123 330q-47 125 -81 252q-37 -135 -80 -254zM647 1602q0 -41 29 -70t69 -29q41 0 70 29t29 70t-29 69.5 t-70 28.5t-69.5 -29t-28.5 -69z" />
<glyph unicode="&#xc6;" horiz-adv-x="1886" d="M4 0l623 1452h848l88 -285h-469l80 -286h450l84 -283h-451l91 -309h471l88 -289h-807l-78 281h-569l-111 -281h-338zM563 555h383l-98 342q-25 78 -66 240q-43 -129 -86 -240z" />
<glyph unicode="&#xc7;" horiz-adv-x="1310" d="M78 713q0 328 209 546t538 218q225 0 389 -76v-342q-160 131 -378 131q-188 0 -308 -123q-125 -129 -125 -346q0 -195 111 -322q123 -139 332 -139q217 0 368 119v-324q-168 -86 -403 -86q-328 0 -535 219q-199 211 -198 525zM461 -358l217 282l227 -104l-280 -305z" />
<glyph unicode="&#xc8;" horiz-adv-x="1138" d="M164 0v1452h821v-285h-506v-286h496v-283h-496v-309h506v-289h-821zM303 1753l258 154l268 -271l-147 -110z" />
<glyph unicode="&#xc9;" horiz-adv-x="1138" d="M164 0v1452h821v-285h-506v-286h496v-283h-496v-309h506v-289h-821zM469 1632l264 269l260 -154l-377 -227z" />
<glyph unicode="&#xca;" horiz-adv-x="1138" d="M164 0v1452h821v-285h-506v-286h496v-283h-496v-309h506v-289h-821zM213 1696l385 153l389 -145l-86 -184l-299 112l-305 -112z" />
<glyph unicode="&#xcb;" horiz-adv-x="1138" d="M164 0v1452h821v-285h-506v-286h496v-283h-496v-309h506v-289h-821zM276 1696q0 61 44.5 105t105.5 44t105 -44t44 -105t-44 -105.5t-105 -44.5t-105.5 44t-44.5 106zM647 1696q0 61 44.5 105t105.5 44t105 -44t44 -105t-44 -105.5t-105 -44.5t-105.5 44t-44.5 106z" />
<glyph unicode="&#xcc;" horiz-adv-x="643" d="M6 1755l254 154l270 -271l-147 -110zM164 0v1452h315v-1452h-315z" />
<glyph unicode="&#xcd;" horiz-adv-x="643" d="M129 1632l266 269l258 -154l-379 -227zM164 0v1452h315v-1452h-315z" />
<glyph unicode="&#xce;" horiz-adv-x="643" d="M-61 1696l385 153l387 -145l-86 -184l-297 112l-305 -112zM164 0v1452h315v-1452h-315z" />
<glyph unicode="&#xcf;" horiz-adv-x="643" d="M-12 1696q0 61 44 105t105 44t105.5 -44t44.5 -105t-44 -105.5t-106 -44.5q-61 0 -105 44t-44 106zM164 0v1452h315v-1452h-315zM358 1696q0 61 44.5 105t105.5 44t105 -44t44 -105t-44 -105.5t-105 -44.5t-105.5 44t-44.5 106z" />
<glyph unicode="&#xd0;" horiz-adv-x="1435" d="M55 614v242h119v596h412q373 0 561 -188q211 -211 211 -516q0 -328 -217 -545q-203 -203 -574 -203h-393v614h-119zM485 256h88q209 0 320 109q133 130 133 370q0 223 -123 346q-117 117 -346 117h-72v-342h140v-242h-140v-358z" />
<glyph unicode="&#xd1;" horiz-adv-x="1583" d="M164 0v1452h287l489 -698q135 -193 203 -320q-14 182 -17 424l-4 594h297v-1452h-282l-506 719q-121 170 -195 291q6 -109 15 -330l14 -680h-301zM399 1544q0 125 72 210t180 85q78 0 172.5 -47t143.5 -47q77 0 77 84h209q0 -133 -75.5 -215t-190.5 -82q-68 0 -169 49 t-146 49q-29 0 -49.5 -26.5t-20.5 -59.5h-203z" />
<glyph unicode="&#xd2;" horiz-adv-x="1665" d="M61 723q0 315 227.5 539.5t542.5 224.5q322 0 547.5 -222.5t225.5 -541.5q0 -313 -227.5 -537.5t-545.5 -224.5q-324 0 -547 221t-223 541zM385 727q0 -195 128 -330t318 -135q193 0 321 135t128 330t-128 329t-321 134q-190 0 -318 -134t-128 -329zM543 1753l258 154 l266 -271l-147 -110z" />
<glyph unicode="&#xd3;" horiz-adv-x="1665" d="M61 723q0 315 227.5 539.5t542.5 224.5q322 0 547.5 -222.5t225.5 -541.5q0 -313 -227.5 -537.5t-545.5 -224.5q-324 0 -547 221t-223 541zM385 727q0 -195 128 -330t318 -135q193 0 321 135t128 330t-128 329t-321 134q-190 0 -318 -134t-128 -329zM600 1632l266 269 l258 -154l-374 -227z" />
<glyph unicode="&#xd4;" horiz-adv-x="1665" d="M61 723q0 315 227.5 539.5t542.5 224.5q322 0 547.5 -222.5t225.5 -541.5q0 -313 -227.5 -537.5t-545.5 -224.5q-324 0 -547 221t-223 541zM385 727q0 -195 128 -330t318 -135q193 0 321 135t128 330t-128 329t-321 134q-190 0 -318 -134t-128 -329zM451 1696l387 153 l387 -145l-88 -184l-297 112l-305 -112z" />
<glyph unicode="&#xd5;" horiz-adv-x="1665" d="M61 723q0 315 227.5 539.5t542.5 224.5q322 0 547.5 -222.5t225.5 -541.5q0 -313 -227.5 -537.5t-545.5 -224.5q-324 0 -547 221t-223 541zM385 727q0 -195 128 -330t318 -135q193 0 321 135t128 330t-128 329t-321 134q-190 0 -318 -134t-128 -329zM403 1542 q0 125 72 210t180 85q78 0 172.5 -47t143.5 -47q78 0 78 84h208q0 -133 -75.5 -215t-190.5 -82q-68 0 -169 49t-146 49q-29 0 -49.5 -26.5t-20.5 -59.5h-203z" />
<glyph unicode="&#xd6;" horiz-adv-x="1665" d="M-10 1466q0 68 48 116t116 48t115.5 -48t47.5 -116t-48 -115.5t-115 -47.5q-68 0 -116 48t-48 115zM61 723q0 315 227.5 539.5t542.5 224.5q322 0 547.5 -222.5t225.5 -541.5q0 -313 -227.5 -537.5t-545.5 -224.5q-324 0 -547 221t-223 541zM385 727q0 -195 128 -330 t318 -135q193 0 321 135t128 330t-128 329t-321 134q-190 0 -318 -134t-128 -329zM1350 1466q0 68 47.5 116t115.5 48t116 -48t48 -116t-48 -115.5t-116 -47.5t-115.5 48t-47.5 115z" />
<glyph unicode="&#xd7;" d="M125 225l375 373l-375 377l186 180l373 -371l377 371l184 -180l-373 -377l373 -373l-184 -186l-377 375l-373 -375z" />
<glyph unicode="&#xd8;" horiz-adv-x="1683" d="M25 55l198 199q-158 203 -157 469q0 315 227 539.5t543 224.5q262 0 467 -154l174 174l108 -108l-168 -168q190 -213 191 -508q0 -313 -227.5 -537.5t-544.5 -224.5q-289 0 -506 182l-197 -196zM381 727q-1 -137 65 -250l646 645q-113 78 -256 78q-195 0 -325 -137 t-130 -336zM545 358q123 -106 291 -106q197 0 326.5 137t129.5 338q0 164 -90 289z" />
<glyph unicode="&#xd9;" horiz-adv-x="1488" d="M156 537v915h315v-897q0 -102 18 -154q23 -70 95.5 -115.5t169.5 -45.5q119 0 194.5 75.5t75.5 229.5v907h309v-881q0 -293 -164 -456q-150 -150 -428 -150q-287 0 -448 162q-137 137 -137 410zM395 1753l256 154l269 -271l-148 -110z" />
<glyph unicode="&#xda;" horiz-adv-x="1488" d="M156 537v915h315v-897q0 -102 18 -154q23 -70 95.5 -115.5t169.5 -45.5q119 0 194.5 75.5t75.5 229.5v907h309v-881q0 -293 -164 -456q-150 -150 -428 -150q-287 0 -448 162q-137 137 -137 410zM541 1632l266 269l258 -154l-377 -227z" />
<glyph unicode="&#xdb;" horiz-adv-x="1488" d="M156 537v915h315v-897q0 -102 18 -154q23 -70 95.5 -115.5t169.5 -45.5q119 0 194.5 75.5t75.5 229.5v907h309v-881q0 -293 -164 -456q-150 -150 -428 -150q-287 0 -448 162q-137 137 -137 410zM371 1696l383 153l387 -145l-86 -184l-297 112l-305 -112z" />
<glyph unicode="&#xdc;" horiz-adv-x="1488" d="M152 1675q0 68 47.5 116t115.5 48t116 -48t48 -116t-48 -116t-116 -48t-115.5 48.5t-47.5 115.5zM156 537v915h315v-897q0 -102 18 -154q23 -70 95.5 -115.5t169.5 -45.5q119 0 194.5 75.5t75.5 229.5v907h309v-881q0 -293 -164 -456q-150 -150 -428 -150 q-287 0 -448 162q-137 137 -137 410zM1014 1675q0 68 48 116t116 48t115.5 -48t47.5 -116t-48 -116t-115 -48q-68 0 -116 48.5t-48 115.5z" />
<glyph unicode="&#xdd;" horiz-adv-x="1292" d="M6 1452h367l278 -553l283 553h354l-485 -790v-662h-316v649zM453 1632l266 269l258 -154l-379 -227z" />
<glyph unicode="&#xde;" horiz-adv-x="1218" d="M174 0v1452h313v-270h103q328 0 459 -131q118 -119 118 -318q0 -201 -120 -321q-141 -141 -431 -142h-129v-270h-313zM487 537h125q125 0 178.5 53t53.5 135q0 86 -47 133q-53 53 -174 53h-136v-374z" />
<glyph unicode="&#xdf;" horiz-adv-x="1128" d="M117 0v1145q0 180 104 289q113 121 330 120q193 0 301.5 -99t108.5 -263q0 -111 -69 -213t-69 -154q0 -43 70 -106q100 -94 127 -133q70 -94 70 -211q0 -182 -117 -291q-104 -98 -258 -98q-145 0 -244 71l107 219q43 -49 112 -49q104 0 105 117q0 70 -70 135 q-66 59 -133 119q-70 84 -70 201q0 102 70 208.5t70 168.5q0 53 -34 93t-93 40q-57 0 -92 -42t-35 -110v-1157h-291z" />
<glyph unicode="&#xe0;" horiz-adv-x="1208" d="M76 436q0 217 120.5 353.5t325.5 136.5q195 0 281 -133v104h289v-897h-289v92q-123 -123 -307 -123q-193 0 -306.5 130t-113.5 337zM244 1282l227 170l291 -336l-168 -112zM375 444q0 -104 59 -172q63 -74 164 -73q98 0 156.5 69.5t58.5 165.5q0 100 -62.5 170t-162.5 70 q-92 0 -152.5 -63.5t-60.5 -166.5z" />
<glyph unicode="&#xe1;" horiz-adv-x="1208" d="M76 436q0 217 120.5 353.5t325.5 136.5q195 0 281 -133v104h289v-897h-289v92q-123 -123 -307 -123q-193 0 -306.5 130t-113.5 337zM375 444q0 -104 59 -172q63 -74 164 -73q98 0 156.5 69.5t58.5 165.5q0 100 -62.5 170t-162.5 70q-92 0 -152.5 -63.5t-60.5 -166.5z M475 1116l289 336l229 -170l-352 -278z" />
<glyph unicode="&#xe2;" horiz-adv-x="1208" d="M76 436q0 217 120.5 353.5t325.5 136.5q195 0 281 -133v104h289v-897h-289v92q-123 -123 -307 -123q-193 0 -306.5 130t-113.5 337zM233 1188l400 278l373 -274l-127 -170l-258 174l-250 -176zM375 444q0 -104 59 -172q63 -74 164 -73q98 0 156.5 69.5t58.5 165.5 q0 100 -62.5 170t-162.5 70q-92 0 -152.5 -63.5t-60.5 -166.5z" />
<glyph unicode="&#xe3;" horiz-adv-x="1208" d="M76 436q0 217 120.5 353.5t325.5 136.5q195 0 281 -133v104h289v-897h-289v92q-123 -123 -307 -123q-193 0 -306.5 130t-113.5 337zM186 1067q0 125 72 210t180 85q78 0 172.5 -47t143.5 -47q77 0 77 84h209q0 -133 -75.5 -215t-190.5 -82q-68 0 -169 49t-146 49 q-29 0 -49.5 -26.5t-20.5 -59.5h-203zM375 444q0 -104 59 -172q63 -74 164 -73q98 0 156.5 69.5t58.5 165.5q0 100 -62.5 170t-162.5 70q-92 0 -152.5 -63.5t-60.5 -166.5z" />
<glyph unicode="&#xe4;" horiz-adv-x="1208" d="M76 436q0 217 120.5 353.5t325.5 136.5q195 0 281 -133v104h289v-897h-289v92q-123 -123 -307 -123q-193 0 -306.5 130t-113.5 337zM240 1235q0 68 47.5 116t115.5 48t116 -48t48 -116t-48 -116t-116 -48t-115.5 48t-47.5 116zM375 444q0 -104 59 -172q63 -74 164 -73 q98 0 156.5 69.5t58.5 165.5q0 100 -62.5 170t-162.5 70q-92 0 -152.5 -63.5t-60.5 -166.5zM694 1235q0 68 48 116t116 48t116 -48t48 -116t-48 -116t-116 -48t-116 48t-48 116z" />
<glyph unicode="&#xe5;" horiz-adv-x="1208" d="M76 436q0 217 120.5 353.5t325.5 136.5q195 0 281 -133v104h289v-897h-289v92q-123 -123 -307 -123q-193 0 -306.5 130t-113.5 337zM375 444q0 -104 59 -172q63 -74 164 -73q98 0 156.5 69.5t58.5 165.5q0 100 -62.5 170t-162.5 70q-92 0 -152.5 -63.5t-60.5 -166.5z M379 1264q0 104 74 174.5t178 70.5t178 -70.5t74 -174.5t-74 -175t-178 -71t-178 70.5t-74 175.5zM532 1264q0 -41 29 -70t70 -29t69.5 29t28.5 70t-28.5 69.5t-69.5 28.5t-70 -28.5t-29 -69.5z" />
<glyph unicode="&#xe6;" horiz-adv-x="1669" d="M74 266q0 289 415 289h205q-12 70 -68.5 116t-146.5 46q-117 0 -188 -82l-185 135q156 160 404 160q193 0 315 -123q121 123 310 123q209 0 334.5 -124t125.5 -345q0 -47 -2 -86h-647q4 -84 64.5 -139.5t152.5 -55.5q133 0 223 115l189 -125q-162 -203 -442 -203 q-191 0 -326 135q-131 -135 -326 -135q-201 0 -304 81t-103 218zM340 276q0 -43 40 -73.5t105 -30.5q92 0 152.5 53.5t60.5 149.5h-211q-147 0 -147 -99zM948 555h359q0 66 -48.5 119t-125.5 53q-78 0 -128.5 -48t-56.5 -124z" />
<glyph unicode="&#xe7;" horiz-adv-x="899" d="M76 442q0 195 125 332q139 152 370 152q144 0 244 -47v-263q-82 57 -201 58q-102 0 -169.5 -60.5t-67.5 -162.5q0 -98 65.5 -166t171.5 -68q123 0 201 68v-265q-133 -49 -264 -49q-221 0 -352 142q-123 131 -123 329zM246 -358l217 282l227 -104l-280 -305z" />
<glyph unicode="&#xe8;" horiz-adv-x="1081" d="M76 442q0 211 131 349.5t338 138.5q209 0 335 -124t126 -345q0 -47 -2 -82h-648q4 -86 64.5 -142.5t152.5 -56.5q135 0 224 119l188 -125q-160 -207 -442 -207q-195 0 -324 119q-143 129 -143 356zM219 1282l227 170l291 -336l-168 -112zM358 551h359q0 68 -48 121 t-126 53t-127.5 -48t-57.5 -126z" />
<glyph unicode="&#xe9;" horiz-adv-x="1081" d="M76 442q0 211 131 349.5t338 138.5q209 0 335 -124t126 -345q0 -47 -2 -82h-648q4 -86 64.5 -142.5t152.5 -56.5q135 0 224 119l188 -125q-160 -207 -442 -207q-195 0 -324 119q-143 129 -143 356zM356 1116l289 336l229 -170l-352 -278zM358 551h359q0 68 -48 121 t-126 53t-127.5 -48t-57.5 -126z" />
<glyph unicode="&#xea;" horiz-adv-x="1081" d="M76 442q0 211 131 349.5t338 138.5q209 0 335 -124t126 -345q0 -47 -2 -82h-648q4 -86 64.5 -142.5t152.5 -56.5q135 0 224 119l188 -125q-160 -207 -442 -207q-195 0 -324 119q-143 129 -143 356zM158 1188l399 278l373 -274l-127 -170l-258 174l-250 -176zM358 551h359 q0 68 -48 121t-126 53t-127.5 -48t-57.5 -126z" />
<glyph unicode="&#xeb;" horiz-adv-x="1081" d="M76 442q0 211 131 349.5t338 138.5q209 0 335 -124t126 -345q0 -47 -2 -82h-648q4 -86 64.5 -142.5t152.5 -56.5q135 0 224 119l188 -125q-160 -207 -442 -207q-195 0 -324 119q-143 129 -143 356zM174 1235q0 68 48 116t116 48t116 -48t48 -116t-48 -116t-116 -48 t-116 48t-48 116zM358 551h359q0 68 -48 121t-126 53t-127.5 -48t-57.5 -126zM629 1235q0 68 48 116t116 48t115.5 -48t47.5 -116t-48 -116t-115 -48q-68 0 -116 48t-48 116z" />
<glyph unicode="&#xec;" horiz-adv-x="536" d="M-45 1282l227 170l291 -336l-168 -112zM123 0v897h291v-897h-291z" />
<glyph unicode="&#xed;" horiz-adv-x="536" d="M84 1116l289 336l229 -170l-352 -278zM123 0v897h291v-897h-291z" />
<glyph unicode="&#xee;" horiz-adv-x="536" d="M-119 1188l400 278l372 -274l-127 -170l-258 174l-250 -176zM123 0v897h291v-897h-291z" />
<glyph unicode="&#xef;" horiz-adv-x="536" d="M-117 1235q0 68 48 116t116 48t116 -48t48 -116t-48 -116t-116 -48t-116 48t-48 116zM123 0v897h291v-897h-291zM338 1235q0 68 48 116t116 48t116 -48t48 -116t-48.5 -116t-115.5 -48q-68 0 -116 48t-48 116z" />
<glyph unicode="&#xf0;" horiz-adv-x="1187" d="M53 453q0 193 125 327q131 143 336 144q184 0 287 -99q-37 166 -183 305l-190 -116l-113 186l97 57q-84 41 -211 58l37 241q231 -35 432 -143l170 103l112 -187l-90 -53q275 -269 275 -666q0 -285 -158 -460t-410 -175q-229 0 -372.5 129t-143.5 349zM360 455 q0 -98 62.5 -163t155.5 -65q94 0 155.5 64t61.5 164t-61.5 161.5t-158.5 61.5q-94 0 -154.5 -65.5t-60.5 -157.5z" />
<glyph unicode="&#xf1;" horiz-adv-x="1122" d="M117 0v897h291v-119q100 139 290 140q147 0 236 -89q80 -80 80 -262v-567h-291v496q0 176 -137 176q-63 0 -111 -37q-68 -53 -67 -164v-471h-291zM141 1067q0 125 72 210t180 85q78 0 172 -47t144 -47q77 0 77 84h209q0 -133 -75.5 -215t-190.5 -82q-68 0 -169 49 t-146 49q-29 0 -49.5 -26.5t-20.5 -59.5h-203z" />
<glyph unicode="&#xf2;" horiz-adv-x="1171" d="M76 451q0 203 142.5 341t367.5 138q221 0 365.5 -137.5t144.5 -343.5q0 -195 -135 -332q-150 -150 -390 -150q-211 0 -353 136.5t-142 347.5zM242 1282l227 170l291 -336l-168 -112zM369 444q0 -96 65.5 -160.5t151.5 -64.5q94 0 154.5 67.5t60.5 162.5q0 96 -63.5 161.5 t-153.5 65.5q-96 0 -155.5 -67.5t-59.5 -164.5z" />
<glyph unicode="&#xf3;" horiz-adv-x="1171" d="M76 451q0 203 142.5 341t367.5 138q221 0 365.5 -137.5t144.5 -343.5q0 -195 -135 -332q-150 -150 -390 -150q-211 0 -353 136.5t-142 347.5zM369 444q0 -96 65.5 -160.5t151.5 -64.5q94 0 154.5 67.5t60.5 162.5q0 96 -63.5 161.5t-153.5 65.5q-96 0 -155.5 -67.5 t-59.5 -164.5zM408 1116l288 336l230 -170l-353 -278z" />
<glyph unicode="&#xf4;" horiz-adv-x="1171" d="M76 451q0 203 142.5 341t367.5 138q221 0 365.5 -137.5t144.5 -343.5q0 -195 -135 -332q-150 -150 -390 -150q-211 0 -353 136.5t-142 347.5zM201 1188l399 278l373 -274l-127 -170l-258 174l-250 -176zM369 444q0 -96 65.5 -160.5t151.5 -64.5q94 0 154.5 67.5 t60.5 162.5q0 96 -63.5 161.5t-153.5 65.5q-96 0 -155.5 -67.5t-59.5 -164.5z" />
<glyph unicode="&#xf5;" horiz-adv-x="1171" d="M76 451q0 203 142.5 341t367.5 138q221 0 365.5 -137.5t144.5 -343.5q0 -195 -135 -332q-150 -150 -390 -150q-211 0 -353 136.5t-142 347.5zM162 1067q0 125 71.5 210t180.5 85q78 0 172 -47t143 -47q78 0 78 84h209q0 -133 -76 -215t-190 -82q-68 0 -169.5 49 t-146.5 49q-29 0 -49 -26.5t-20 -59.5h-203zM369 444q0 -96 65.5 -160.5t151.5 -64.5q94 0 154.5 67.5t60.5 162.5q0 96 -63.5 161.5t-153.5 65.5q-96 0 -155.5 -67.5t-59.5 -164.5z" />
<glyph unicode="&#xf6;" horiz-adv-x="1171" d="M76 451q0 203 142.5 341t367.5 138q221 0 365.5 -137.5t144.5 -343.5q0 -195 -135 -332q-150 -150 -390 -150q-211 0 -353 136.5t-142 347.5zM197 1235q0 68 47.5 116t115.5 48t116 -48t48 -116t-48 -116t-116 -48t-115.5 48t-47.5 116zM369 444q0 -96 65.5 -160.5 t151.5 -64.5q94 0 154.5 67.5t60.5 162.5q0 96 -63.5 161.5t-153.5 65.5q-96 0 -155.5 -67.5t-59.5 -164.5zM651 1235q0 68 48 116t116 48t116 -48t48 -116t-48 -116t-116 -48t-116 48t-48 116z" />
<glyph unicode="&#xf7;" d="M0 467v262h1372v-262h-1372zM520 186q0 70 48 118t118 48t118 -48t48 -118t-48 -118t-118 -48t-118 48.5t-48 117.5zM520 1008q0 70 48 118t118 48t118 -48.5t48 -117.5q0 -70 -48 -118t-118 -48t-118 48t-48 118z" />
<glyph unicode="&#xf8;" horiz-adv-x="1179" d="M82 451q0 203 142.5 341t367.5 138q176 0 313 -94l101 96l90 -101l-95 -88q100 -123 101 -294q0 -195 -135 -332q-150 -150 -389 -150q-168 0 -299 90l-99 -92l-90 101l92 86q-100 127 -100 299zM362 444q1 -53 21 -100l328 309q-51 37 -121 37q-102 0 -165 -72.5 t-63 -173.5zM471 242q55 -37 121 -37q100 0 163.5 71.5t63.5 172.5q0 51 -20 102z" />
<glyph unicode="&#xf9;" horiz-adv-x="1126" d="M109 428v469h290v-461q0 -223 168 -223q160 0 160 215v469h291v-469q0 -242 -100 -340q-123 -121 -355 -121q-227 0 -362 135q-92 92 -92 326zM229 1282l228 170l291 -336l-168 -112z" />
<glyph unicode="&#xfa;" horiz-adv-x="1126" d="M109 428v469h290v-461q0 -223 168 -223q160 0 160 215v469h291v-469q0 -242 -100 -340q-123 -121 -355 -121q-227 0 -362 135q-92 92 -92 326zM403 1116l289 336l230 -170l-353 -278z" />
<glyph unicode="&#xfb;" horiz-adv-x="1126" d="M109 428v469h290v-461q0 -223 168 -223q160 0 160 215v469h291v-469q0 -242 -100 -340q-123 -121 -355 -121q-227 0 -362 135q-92 92 -92 326zM172 1188l399 278l373 -274l-127 -170l-258 174l-250 -176z" />
<glyph unicode="&#xfc;" horiz-adv-x="1126" d="M109 428v469h290v-461q0 -223 168 -223q160 0 160 215v469h291v-469q0 -242 -100 -340q-123 -121 -355 -121q-227 0 -362 135q-92 92 -92 326zM174 1235q0 68 48 116t116 48t116 -48t48 -116t-48 -116t-116 -48t-116 48t-48 116zM629 1235q0 68 48 116t116 48t115.5 -48 t47.5 -116t-48 -116t-115 -48q-68 0 -116 48t-48 116z" />
<glyph unicode="&#xfd;" horiz-adv-x="1128" d="M4 897h332l166 -401q29 -66 76 -203q31 86 75 196l166 408h305l-569 -1309h-311l176 394zM377 1116l289 336l229 -170l-352 -278z" />
<glyph unicode="&#xfe;" horiz-adv-x="1224" d="M123 -412v1946h291v-752q104 139 307 140q184 0 303 -135t119 -338q0 -188 -115 -324q-127 -150 -334 -150q-180 0 -280 115v-502h-291zM403 434q0 -102 59.5 -167.5t158.5 -65.5q100 0 159 75q54 66 54 162t-52 160q-59 74 -166 74q-96 0 -154.5 -71t-58.5 -167z" />
<glyph unicode="&#xff;" horiz-adv-x="1116" d="M-2 897h332l166 -401q29 -66 75 -203q31 86 76 196l166 408h305l-569 -1309h-311l176 394zM178 1235q0 68 48 116t116 48t116 -48t48 -116t-48 -116t-116 -48t-116 48t-48 116zM633 1235q0 68 48 116t116 48t116 -48t48 -116t-48.5 -116t-115.5 -48q-68 0 -116 48 t-48 116z" />
<glyph unicode="&#x152;" horiz-adv-x="2267" d="M61 723q0 313 224.5 536.5t543.5 223.5q240 -1 433 -144v113h809v-283h-506v-288h495v-283h-495v-309h506v-289h-809v119q-209 -154 -433 -154q-322 0 -545 219t-223 539zM385 729q0 -199 130 -331t314 -132q193 0 322 133t129 328q0 199 -135 332q-132 127 -314 127 q-178 0 -309 -123q-137 -131 -137 -334z" />
<glyph unicode="&#x153;" horiz-adv-x="1818" d="M82 451q0 203 142.5 341t367.5 138q219 -1 352 -146q113 145 334 146q207 0 334 -125t127 -344q0 -47 -2 -82h-647q4 -86 64 -142.5t153 -56.5q135 0 223 119l188 -125q-160 -207 -442 -207q-217 0 -340 148q-137 -147 -358 -148q-211 0 -353.5 136.5t-142.5 347.5z M375 444q0 -96 65.5 -160.5t151.5 -64.5q94 0 154.5 67.5t60.5 162.5q0 96 -63.5 161.5t-153.5 65.5q-96 0 -155.5 -67.5t-59.5 -164.5zM1092 551h358q0 68 -48 121t-126 53t-127 -48t-57 -126z" />
<glyph unicode="&#x178;" horiz-adv-x="1292" d="M6 1452h367l278 -553l283 553h354l-485 -790v-662h-316v649zM270 1700q0 61 44.5 105t105.5 44t105 -44t44 -105t-44 -105.5t-105 -44.5t-105.5 44t-44.5 106zM711 1700q0 61 44 105t105 44t105.5 -44t44.5 -105t-44 -105.5t-106 -44.5q-61 0 -105 44t-44 106z" />
<glyph unicode="&#x2c6;" horiz-adv-x="1024" d="M209 1188l399 278l373 -274l-127 -170l-258 174l-250 -176z" />
<glyph unicode="&#x2dc;" horiz-adv-x="1024" d="M203 1067q0 125 71.5 210t180.5 85q78 0 172 -47t143 -47q78 0 78 84h209q0 -133 -76 -215t-190 -82q-68 0 -169.5 49t-146.5 49q-29 0 -49 -26.5t-20 -59.5h-203z" />
<glyph unicode="&#x2000;" horiz-adv-x="954" />
<glyph unicode="&#x2001;" horiz-adv-x="1909" />
<glyph unicode="&#x2002;" horiz-adv-x="954" />
<glyph unicode="&#x2003;" horiz-adv-x="1909" />
<glyph unicode="&#x2004;" horiz-adv-x="636" />
<glyph unicode="&#x2005;" horiz-adv-x="477" />
<glyph unicode="&#x2006;" horiz-adv-x="318" />
<glyph unicode="&#x2007;" horiz-adv-x="318" />
<glyph unicode="&#x2008;" horiz-adv-x="238" />
<glyph unicode="&#x2009;" horiz-adv-x="381" />
<glyph unicode="&#x200a;" horiz-adv-x="106" />
<glyph unicode="&#x2010;" horiz-adv-x="772" d="M82 397v242h606v-242h-606z" />
<glyph unicode="&#x2011;" horiz-adv-x="772" d="M82 397v242h606v-242h-606z" />
<glyph unicode="&#x2012;" horiz-adv-x="772" d="M82 397v242h606v-242h-606z" />
<glyph unicode="&#x2013;" horiz-adv-x="1198" d="M76 397v242h1048v-242h-1048z" />
<glyph unicode="&#x2014;" d="M0 467v262h1372v-262h-1372z" />
<glyph unicode="&#x2018;" horiz-adv-x="514" d="M70 1020q0 258 317 487l92 -106q-117 -103 -117 -191q0 -53 27 -111.5t27 -94.5q0 -74 -49.5 -124.5t-120.5 -50.5q-76 0 -126 52.5t-50 138.5z" />
<glyph unicode="&#x2019;" horiz-adv-x="514" d="M27 901q116 103 116 191q0 53 -26.5 111.5t-26.5 94.5q0 74 49 124.5t121 50.5q76 0 126 -52.5t50 -138.5q0 -258 -317 -487z" />
<glyph unicode="&#x201a;" horiz-adv-x="514" d="M27 -254q116 103 116 191q0 53 -26.5 111t-26.5 95q0 74 49 124t121 50q76 0 126 -52t50 -138q0 -258 -317 -487z" />
<glyph unicode="&#x201c;" horiz-adv-x="962" d="M70 1020q0 258 317 487l92 -106q-117 -103 -117 -191q0 -53 27 -111.5t27 -94.5q0 -74 -49.5 -124.5t-120.5 -50.5q-76 0 -126 52.5t-50 138.5zM526 1020q0 258 318 487l92 -106q-117 -103 -117 -191q0 -53 26.5 -111.5t26.5 -94.5q0 -74 -49 -124.5t-121 -50.5 q-76 0 -126 52.5t-50 138.5z" />
<glyph unicode="&#x201d;" horiz-adv-x="962" d="M27 901q116 103 116 191q0 53 -26.5 111.5t-26.5 94.5q0 74 49 124.5t121 50.5q76 0 126 -52.5t50 -138.5q0 -258 -317 -487zM483 901q117 103 117 191q0 53 -26.5 111.5t-26.5 94.5q0 74 49 124.5t121 50.5q76 0 126 -52.5t50 -138.5q0 -258 -318 -487z" />
<glyph unicode="&#x201e;" horiz-adv-x="962" d="M27 -254q116 103 116 191q0 53 -26.5 111t-26.5 95q0 74 49 124t121 50q76 0 126 -52t50 -138q0 -258 -317 -487zM483 -254q117 103 117 191q0 53 -26.5 111t-26.5 95q0 74 49 124t121 50q76 0 126 -52t50 -138q0 -258 -318 -487z" />
<glyph unicode="&#x2022;" horiz-adv-x="684" d="M25 725q0 133 94 226t225 93q133 0 226.5 -93t93.5 -226q0 -131 -93.5 -225t-226.5 -94q-131 0 -225 94t-94 225z" />
<glyph unicode="&#x2026;" horiz-adv-x="1675" d="M102 147q0 72 51 122t121 50q72 0 122 -50t50 -122q0 -70 -50 -121t-122 -51q-70 0 -121 51.5t-51 120.5zM666 147q0 72 51 122t121 50q72 0 122 -50t50 -122q0 -70 -50.5 -121t-121.5 -51q-70 0 -121 51.5t-51 120.5zM1229 147q0 72 51 122t121 50q72 0 122 -50t50 -122 q0 -70 -50 -121t-122 -51q-70 0 -121 51.5t-51 120.5z" />
<glyph unicode="&#x202f;" horiz-adv-x="381" />
<glyph unicode="&#x2039;" horiz-adv-x="628" d="M53 457l326 473l178 -115l-238 -348l242 -320l-196 -112z" />
<glyph unicode="&#x203a;" horiz-adv-x="628" d="M68 825l196 113l311 -422l-325 -473l-178 115l237 348z" />
<glyph unicode="&#x205f;" horiz-adv-x="477" />
<glyph unicode="&#x2122;" horiz-adv-x="1800" d="M31 1231v221h581v-221h-157v-498h-258v498h-166zM637 733l74 719h372l109 -414l106 414h381l88 -719h-286l-33 471l-133 -471h-293l-125 469l-25 -469h-235z" />
<glyph unicode="&#x25fc;" horiz-adv-x="901" d="M0 0v901h901v-901h-901z" />
</font>
</defs>
</svg>
